<?xml version="1.0" encoding="utf-8"?>
<!-- Generator: Adobe Illustrator 16.0.0, SVG Export Plug-In . SVG Version: 6.00 Build 0)  -->
<!DOCTYPE svg PUBLIC "-//W3C//DTD SVG 1.1//EN" "http://www.w3.org/Graphics/SVG/1.1/DTD/svg11.dtd">
<svg version="1.1" id="Layer_1" xmlns="http://www.w3.org/2000/svg" xmlns:xlink="http://www.w3.org/1999/xlink" x="0px" y="0px"
	 width="112.602px" height="112.602px" viewBox="0 0 112.602 112.602" enable-background="new 0 0 112.602 112.602"
	 xml:space="preserve">
<g>
	<g>
		<path fill-rule="evenodd" clip-rule="evenodd" fill="#F68720" d="M39.643,28h41.256c0.346,0,0.631,0.283,0.631,0.631v9.741v9.753
			v9.741v9.75v9.744c0,0.346-0.286,0.628-0.631,0.628H61.31c-0.268,0.321-0.56,0.628-0.869,0.926
			c-4.036,4.036-9.613,6.536-15.774,6.536s-11.738-2.5-15.774-6.536c-4.042-4.036-6.536-9.613-6.536-15.779
			c0-6.156,2.494-11.732,6.536-15.773c2.756-2.76,6.226-4.793,10.119-5.811v-3.179v-9.741C39.012,28.283,39.292,28,39.643,28
			L39.643,28z M44.667,79.027c2.161,0,4.208-0.43,6.077-1.202c1.94-0.804,3.69-1.986,5.161-3.453
			c1.464-1.468,2.643-3.217,3.446-5.154c0.774-1.869,1.203-3.923,1.203-6.083c0-2.152-0.429-4.203-1.203-6.072
			c-0.804-1.94-1.982-3.689-3.446-5.158c-1.471-1.467-3.221-2.647-5.161-3.448c-1.869-0.774-3.917-1.202-6.077-1.202
			c-2.155,0-4.203,0.428-6.083,1.202c-1.935,0.801-3.685,1.981-5.149,3.448c-1.47,1.469-2.648,3.218-3.446,5.158
			c-0.779,1.869-1.202,3.92-1.202,6.072c0,2.16,0.423,4.214,1.202,6.083c0.798,1.938,1.976,3.687,3.446,5.154
			c1.464,1.467,3.214,2.649,5.149,3.453C40.464,78.598,42.512,79.027,44.667,79.027L44.667,79.027z M51.221,78.982
			c2.107-0.869,3.994-2.14,5.571-3.717c1.578-1.58,2.851-3.471,3.72-5.569c0.833-2.026,1.304-4.24,1.304-6.562
			c0-2.316-0.47-4.531-1.304-6.554c-0.869-2.101-2.143-3.988-3.72-5.563c-1.577-1.582-3.464-2.854-5.571-3.723
			c-2.024-0.842-4.238-1.303-6.554-1.303c-2.322,0-4.53,0.461-6.56,1.303c-2.095,0.869-3.994,2.141-5.56,3.723
			c-1.583,1.575-2.851,3.463-3.72,5.563c-0.839,2.022-1.31,4.237-1.31,6.554c0,2.321,0.47,4.535,1.31,6.562
			c0.869,2.099,2.137,3.989,3.72,5.569c1.566,1.577,3.464,2.848,5.56,3.717c2.03,0.836,4.238,1.3,6.56,1.3
			C46.982,80.282,49.197,79.818,51.221,78.982L51.221,78.982z M60.536,76.974v-0.006l0.007-0.006l0,0l0.012-0.009l0.005-0.004
			v-0.006v-0.005l0.019-0.019l0.017-0.023l0.019-0.019l0,0l0.023-0.024l0.018-0.017l0.012-0.021h0.006l0.018-0.021l0.018-0.021
			c1.101-1.298,2.053-2.727,2.815-4.263c1.113-2.253,1.833-4.688,2.089-7.188c0.065-0.708,0.102-1.437,0.102-2.185
			c0-0.878-0.054-1.737-0.155-2.583c-0.101-0.852-0.256-1.689-0.458-2.506c-0.012-0.021-0.012-0.036-0.018-0.061
			c-0.446-1.781-1.125-3.475-1.988-5.035c-0.881-1.592-1.964-3.059-3.214-4.368c-0.018-0.019-0.036-0.04-0.054-0.057
			c-1.946-2.021-4.297-3.655-6.911-4.768c-2.536-1.075-5.321-1.677-8.25-1.677c-0.833,0-1.661,0.052-2.464,0.143
			c-0.821,0.097-1.619,0.239-2.422,0.43l-0.018,0.006c-3.839,0.914-7.274,2.887-9.982,5.589c-3.803,3.804-6.167,9.071-6.167,14.882
			c0,5.814,2.363,11.08,6.167,14.887c3.804,3.81,9.078,6.17,14.887,6.17s11.078-2.36,14.887-6.17
			C59.899,77.688,60.221,77.336,60.536,76.974L60.536,76.974z M44.036,51.244v1.83H41.06c-1.041,0-1.988,0.423-2.678,1.107
			c-0.685,0.685-1.101,1.625-1.101,2.673v3.137c0,2.074,1.696,3.776,3.779,3.776h2.977v8.176h-6.131
			c-0.346,0-0.625,0.283-0.625,0.631c0,0.346,0.279,0.631,0.625,0.631h6.131v1.828c0,0.352,0.279,0.631,0.631,0.631
			c0.351,0,0.625-0.279,0.625-0.631v-1.828h2.982c2.083,0,3.78-1.696,3.78-3.779v-3.137c0-1.036-0.417-1.982-1.107-2.672l0,0
			c-0.691-0.68-1.631-1.107-2.673-1.107h-2.982v-8.18h4.964c0.352,0,0.632-0.279,0.632-0.631c0-0.345-0.28-0.625-0.632-0.625h-4.964
			v-1.83c0-0.348-0.274-0.628-0.625-0.628C44.315,50.616,44.036,50.896,44.036,51.244L44.036,51.244z M45.292,63.768v8.176h2.982
			c1.393,0,2.53-1.125,2.53-2.518v-3.137c0-0.697-0.292-1.322-0.744-1.78v-0.003c-0.452-0.452-1.083-0.738-1.786-0.738H45.292
			L45.292,63.768z M44.036,62.51v-8.18H41.06c-0.702,0-1.333,0.283-1.786,0.739c-0.453,0.458-0.738,1.089-0.738,1.785v3.137
			c0,1.388,1.125,2.519,2.523,2.519H44.036L44.036,62.51z M80.268,68.241H66.387c-0.398,1.693-0.982,3.315-1.738,4.827
			c-0.643,1.298-1.411,2.523-2.286,3.661h17.905V68.241L80.268,68.241z M80.268,58.5H66.5c0.125,0.629,0.232,1.263,0.304,1.908
			c0.125,0.893,0.172,1.807,0.172,2.731c0,0.769-0.036,1.545-0.119,2.316c-0.053,0.512-0.125,1.022-0.214,1.532h13.625V58.5
			L80.268,58.5z M80.268,48.754H61.721c0.94,1.106,1.762,2.309,2.476,3.588c0.851,1.537,1.518,3.177,1.994,4.893h14.077V48.754
			L80.268,48.754z M80.268,39.006h-40v2.256l0,0c0.589-0.115,1.185-0.211,1.798-0.283c0.851-0.1,1.726-0.15,2.601-0.15
			c3.095,0,6.047,0.633,8.738,1.775c2.703,1.155,5.137,2.825,7.167,4.891h19.696V39.006L80.268,39.006z M80.268,29.259h-40v8.488h40
			V29.259z"/>
	</g>
	
		<circle fill-rule="evenodd" clip-rule="evenodd" fill="none" stroke="#FFFFFF" stroke-miterlimit="10" cx="56.301" cy="56.301" r="55.801"/>
</g>
</svg>
