<?xml version="1.0" encoding="utf-8"?>
<!-- Generator: Adobe Illustrator 16.0.0, SVG Export Plug-In . SVG Version: 6.00 Build 0)  -->
<!DOCTYPE svg PUBLIC "-//W3C//DTD SVG 1.1//EN" "http://www.w3.org/Graphics/SVG/1.1/DTD/svg11.dtd">
<svg version="1.1" id="Layer_1" xmlns="http://www.w3.org/2000/svg" xmlns:xlink="http://www.w3.org/1999/xlink" x="0px" y="0px"
	 width="112.602px" height="112.602px" viewBox="0 0 112.602 112.602" enable-background="new 0 0 112.602 112.602"
	 xml:space="preserve">
<g>
	<path fill-rule="evenodd" clip-rule="evenodd" fill="#F68720" d="M56.304,29.188c-7.488,0-14.268,3.036-19.179,7.946
		c-4.898,4.905-7.934,11.679-7.934,19.167s3.036,14.268,7.934,19.172c4.911,4.905,11.69,7.944,19.179,7.944
		c7.487,0,14.269-3.039,19.168-7.944c4.91-4.904,7.938-11.684,7.938-19.172s-3.028-14.262-7.938-19.167
		C70.572,32.224,63.791,29.188,56.304,29.188L56.304,29.188z M53.352,60.307c-0.268,0.269-0.697,0.269-0.977,0
		c-0.256-0.268-0.256-0.703,0-0.974l1.732-1.726l-11.208-8.366c-0.298-0.226-0.363-0.661-0.131-0.958l2-2.69
		c0.232-0.31,0.661-0.37,0.971-0.146l9.339,6.977l-0.179-1.255c-0.06-0.379,0.203-0.721,0.583-0.771
		c0.375-0.054,0.72,0.208,0.774,0.583l0.351,2.595l0.876,0.654l11.506-11.502c0.267-0.271,0.708-0.271,0.976,0
		c0.267,0.271,0.267,0.702,0,0.973L58.602,55.061l1.445,1.083c0.312,0.229,0.375,0.661,0.15,0.961l-2.019,2.693
		c-0.154,0.214-0.417,0.307-0.666,0.265L59.5,74.363c0.047,0.378-0.214,0.72-0.584,0.771c-0.373,0.054-0.725-0.208-0.772-0.58
		L55.988,59.01l-0.762-0.568L53.352,60.307L53.352,60.307z M57.494,58.426l-1.91-1.429l-0.042-0.026l-11.262-8.42l1.19-1.589
		l11.648,8.708l0.048,0.029l1.519,1.137L57.494,58.426L57.494,58.426z M71.898,40.7L71.898,40.7
		c1.025,1.023,1.953,2.148,2.762,3.351c0.793,1.196,1.482,2.471,2.037,3.81c0.542,1.315,0.97,2.694,1.25,4.125
		c0.278,1.396,0.416,2.839,0.416,4.315c0,1.479-0.138,2.926-0.416,4.322c-0.28,1.431-0.708,2.812-1.25,4.125
		c-0.555,1.338-1.244,2.612-2.037,3.806c-0.798,1.19-1.707,2.301-2.725,3.315l-0.037,0.032c-1.022,1.03-2.148,1.953-3.345,2.759
		c-1.189,0.801-2.464,1.48-3.816,2.039l0,0c-1.309,0.548-2.69,0.965-4.117,1.25c-1.4,0.274-2.841,0.417-4.316,0.417
		c-1.482,0-2.922-0.143-4.315-0.417c-1.435-0.285-2.821-0.702-4.131-1.25c-1.338-0.557-2.613-1.238-3.803-2.039
		c-1.19-0.794-2.304-1.704-3.321-2.717l-0.024-0.042c-1.036-1.026-1.964-2.148-2.768-3.351c-0.797-1.19-1.476-2.465-2.035-3.803
		c-0.536-1.313-0.965-2.694-1.244-4.132c-0.28-1.39-0.417-2.837-0.417-4.315c0-1.477,0.137-2.92,0.417-4.309
		c0.279-1.436,0.708-2.816,1.244-4.132c0.56-1.339,1.238-2.613,2.035-3.81c0.81-1.202,1.732-2.324,2.756-3.351h0.012
		c1.018-1.024,2.137-1.95,3.345-2.754c1.19-0.794,2.465-1.485,3.815-2.041l0,0c1.31-0.539,2.685-0.958,4.119-1.247
		c1.393-0.269,2.833-0.417,4.315-0.417c1.476,0,2.916,0.148,4.316,0.417c1.422,0.279,2.791,0.695,4.088,1.238l0.029,0.009
		c1.353,0.556,2.627,1.247,3.816,2.041C69.75,38.75,70.876,39.67,71.898,40.7L71.898,40.7z M69.316,36.807
		c1.279,0.859,2.481,1.843,3.558,2.926l0,0l0,0c1.078,1.086,2.066,2.277,2.923,3.557c0.846,1.268,1.578,2.627,2.167,4.051
		c0.578,1.404,1.03,2.869,1.329,4.384c0.291,1.485,0.446,3.015,0.446,4.577c0,1.565-0.155,3.102-0.446,4.58
		c-0.299,1.521-0.751,2.985-1.329,4.384c-0.589,1.423-1.321,2.782-2.167,4.054c-0.844,1.262-1.815,2.44-2.886,3.519l-0.037,0.038
		c-1.076,1.077-2.278,2.062-3.558,2.926c-1.275,0.851-2.626,1.574-4.048,2.16l0,0l0,0c-1.405,0.584-2.875,1.033-4.387,1.334
		c-1.482,0.291-3.019,0.443-4.578,0.443c-1.565,0-3.101-0.152-4.589-0.443c-1.505-0.301-2.97-0.75-4.375-1.334
		c-1.423-0.586-2.786-1.314-4.048-2.16c-1.268-0.852-2.446-1.821-3.524-2.89l-0.042-0.036c-1.078-1.08-2.06-2.276-2.917-3.562
		c-0.857-1.266-1.583-2.625-2.167-4.048c-0.589-1.398-1.036-2.868-1.333-4.384c-0.297-1.484-0.446-3.015-0.446-4.58
		c0-1.562,0.149-3.092,0.446-4.577c0.298-1.515,0.744-2.979,1.333-4.384c0.583-1.424,1.31-2.777,2.167-4.051
		c0.857-1.279,1.833-2.471,2.917-3.557l0,0c1.089-1.083,2.28-2.066,3.565-2.926c1.273-0.852,2.625-1.58,4.048-2.166l0,0l0,0
		c1.404-0.578,2.869-1.031,4.387-1.328c1.477-0.291,3.012-0.446,4.577-0.446c1.56,0,3.096,0.155,4.578,0.446
		c1.506,0.295,2.952,0.741,4.35,1.312l0.037,0.016C66.69,35.227,68.041,35.955,69.316,36.807L69.316,36.807z M36.155,36.161
		c5.155-5.151,12.28-8.349,20.149-8.349c7.868,0,14.982,3.197,20.144,8.349c5.155,5.151,8.345,12.276,8.345,20.14
		c0,7.868-3.189,14.988-8.345,20.146c-5.161,5.151-12.275,8.342-20.144,8.342c-7.869,0-14.994-3.19-20.149-8.342
		c-5.148-5.158-8.339-12.278-8.339-20.146C27.815,48.438,31.006,41.312,36.155,36.161z"/>
	
		<circle fill-rule="evenodd" clip-rule="evenodd" fill="none" stroke="#FFFFFF" stroke-miterlimit="10" cx="56.301" cy="56.301" r="55.801"/>
</g>
</svg>
