<?xml version="1.0" encoding="utf-8"?>
<!-- Generator: Adobe Illustrator 16.0.0, SVG Export Plug-In . SVG Version: 6.00 Build 0)  -->
<!DOCTYPE svg PUBLIC "-//W3C//DTD SVG 1.1//EN" "http://www.w3.org/Graphics/SVG/1.1/DTD/svg11.dtd">
<svg version="1.1" id="Layer_1" xmlns="http://www.w3.org/2000/svg" xmlns:xlink="http://www.w3.org/1999/xlink" x="0px" y="0px"
	 width="112.602px" height="112.602px" viewBox="0 0 112.602 112.602" enable-background="new 0 0 112.602 112.602"
	 xml:space="preserve">
<g>
	<g>
		<path fill-rule="evenodd" clip-rule="evenodd" fill="#F68720" d="M67.524,26.566L52.34,41.748l2.678,2.678
			c1.911-0.354,3.929-0.228,5.857,0.352c2.072,0.616,4.042,1.764,5.708,3.432s2.821,3.644,3.44,5.717
			c0.578,1.929,0.703,3.943,0.352,5.854l2.672,2.679l15.185-15.185L67.524,26.566L67.524,26.566z M45.423,42.862l26.506,26.507
			l2.94-2.94l-5.714-5.72L54.09,45.646l-5.726-5.725L45.423,42.862L45.423,42.862z M71.012,70.289L44.506,43.783l-2.94,2.938
			l5.726,5.724l15.06,15.064l5.72,5.717L71.012,70.289L71.012,70.289z M22.465,63.988l17.732-17.73l7.708-7.713L65.631,20.82
			c0.447-0.441,1.018-0.662,1.613-0.662c0.571,0,1.167,0.217,1.607,0.656l25.13,25.133c0.441,0.441,0.661,1.036,0.655,1.605
			c0.006,0.026,0,0.051,0,0.056c-0.012,0.573-0.232,1.126-0.661,1.556L76.25,66.887l-7.708,7.715L50.81,92.333
			c-0.446,0.441-1.023,0.658-1.613,0.664l0,0c-0.577-0.006-1.161-0.229-1.595-0.664L22.465,67.196
			c-0.44-0.438-0.667-1.023-0.661-1.595l0,0l0,0C21.792,65.012,22.024,64.43,22.465,63.988L22.465,63.988z M66.548,21.737
			c0.197-0.194,0.44-0.282,0.691-0.282c0.256-0.006,0.506,0.095,0.69,0.28l25.13,25.134c0.191,0.186,0.292,0.437,0.28,0.691
			l0.006,0.038c-0.018,0.233-0.107,0.464-0.292,0.646L75.786,65.516l-1.976-1.979l15.798-15.798c0.255-0.254,0.25-0.668,0-0.92
			L67.977,25.192c-0.256-0.257-0.661-0.257-0.917,0L51.262,40.988l-1.982-1.98L66.548,21.737L66.548,21.737z M40.655,47.635
			L23.381,64.905c-0.185,0.188-0.28,0.44-0.28,0.689l-0.012,0.007c0.012,0.24,0.101,0.494,0.292,0.682l25.131,25.134
			c0.184,0.188,0.446,0.279,0.684,0.288c0.256-0.005,0.5-0.098,0.69-0.295L67.161,74.14l-1.982-1.979L49.381,87.962
			c-0.256,0.255-0.667,0.253-0.917,0L26.834,66.334c-0.256-0.257-0.256-0.664,0-0.92l15.797-15.8L40.655,47.635L40.655,47.635z
			 M71.685,39.641c0.482-0.48,1.113-0.72,1.75-0.715c0.625,0,1.256,0.234,1.738,0.715c0.476,0.48,0.714,1.114,0.708,1.736l0,0
			c0,0.633-0.244,1.258-0.72,1.738c-0.482,0.483-1.113,0.729-1.738,0.722H73.37c-0.607-0.014-1.214-0.249-1.679-0.715
			c-0.482-0.48-0.714-1.112-0.72-1.735C70.959,40.757,71.203,40.123,71.685,39.641L71.685,39.641z M73.429,40.227
			c0.297-0.002,0.589,0.103,0.821,0.334c0.226,0.23,0.339,0.515,0.339,0.814l0,0l-0.006,0.01c0.006,0.289-0.113,0.594-0.333,0.818
			c-0.232,0.229-0.529,0.341-0.821,0.334l-0.042,0.007c-0.274-0.011-0.559-0.123-0.779-0.341c-0.232-0.232-0.339-0.517-0.333-0.821
			c-0.006-0.295,0.101-0.593,0.333-0.821C72.828,40.335,73.137,40.219,73.429,40.227L73.429,40.227z M41.28,70.045
			c-0.458,0.459-0.691,1.068-0.703,1.676l-0.005,0.071c0,0.618,0.232,1.253,0.714,1.732c0.482,0.481,1.102,0.708,1.732,0.714l0,0
			l0.006-0.003l0,0c0.643,0.003,1.262-0.247,1.732-0.718c0.487-0.485,0.732-1.112,0.726-1.737c0.006-0.628-0.239-1.253-0.721-1.732
			c-0.476-0.482-1.101-0.727-1.732-0.721l0,0C42.405,69.325,41.763,69.565,41.28,70.045L41.28,70.045z M43.024,70.616
			c-0.292,0.003-0.589,0.116-0.822,0.349c-0.214,0.208-0.327,0.49-0.339,0.776l0.006,0.045c0.006,0.291,0.101,0.586,0.339,0.821
			c0.227,0.226,0.518,0.334,0.816,0.334l0.006,0.005c0.292-0.005,0.589-0.118,0.815-0.339c0.226-0.231,0.345-0.53,0.345-0.827
			c-0.006-0.302-0.113-0.583-0.345-0.815s-0.518-0.34-0.815-0.343l0,0L43.024,70.616L43.024,70.616z M43.019,74.238l-0.643-0.649
			C42.381,73.947,42.667,74.232,43.019,74.238L43.019,74.238z M48.489,82.666l5.422-5.425c0.256-0.253,0.262-0.658,0.006-0.92
			c-0.25-0.25-0.661-0.25-0.917,0.007l-5.429,5.428c-0.25,0.254-0.25,0.661,0,0.91C47.828,82.929,48.232,82.923,48.489,82.666
			L48.489,82.666z M78.887,52.268c-0.256,0.258-0.655,0.257-0.917-0.002c-0.25-0.25-0.256-0.653,0-0.91l5.429-5.425
			c0.262-0.261,0.661-0.255,0.911-0.005c0.262,0.259,0.262,0.656,0,0.918L78.887,52.268L78.887,52.268z M63.441,36.824
			c-0.256,0.257-0.661,0.25-0.911-0.004c-0.256-0.255-0.262-0.658-0.006-0.915l5.422-5.426c0.262-0.261,0.667-0.253,0.922,0.001
			c0.25,0.254,0.256,0.657,0,0.919L63.441,36.824L63.441,36.824z M33.042,67.224l5.429-5.427c0.25-0.256,0.25-0.666,0-0.919
			c-0.256-0.253-0.667-0.253-0.923,0l-5.423,5.426c-0.256,0.256-0.256,0.667,0,0.92C32.375,67.477,32.786,67.477,33.042,67.224
			L33.042,67.224z M56.161,45.57c1.44-0.129,2.905,0.021,4.346,0.44c1.851,0.56,3.643,1.605,5.16,3.118
			c1.506,1.512,2.554,3.303,3.119,5.16c0.423,1.445,0.571,2.909,0.435,4.336L56.161,45.57L56.161,45.57z M47.214,54.521
			c-0.131,1.436,0.019,2.901,0.447,4.336c0.554,1.856,1.601,3.648,3.113,5.164c1.512,1.509,3.304,2.557,5.167,3.112
			c1.435,0.433,2.899,0.581,4.327,0.443L47.214,54.521L47.214,54.521z M46.423,59.232c-0.583-1.932-0.708-3.948-0.363-5.859
			l-2.667-2.674L28.215,65.875l20.708,20.709l15.179-15.177l-2.679-2.676c-1.911,0.352-3.922,0.228-5.856-0.353
			c-2.072-0.617-4.042-1.771-5.709-3.438C48.191,63.274,47.036,61.303,46.423,59.232z"/>
	</g>
	<path fill-rule="evenodd" clip-rule="evenodd" fill="none" stroke="#FFFFFF" stroke-miterlimit="10" d="M0.5,56.301
		C0.5,25.483,25.483,0.5,56.298,0.5c30.821,0,55.803,24.983,55.803,55.801c0,30.818-24.982,55.801-55.803,55.801
		C25.483,112.102,0.5,87.119,0.5,56.301z"/>
</g>
</svg>
