<?xml version="1.0" encoding="utf-8"?>
<!-- Generator: Adobe Illustrator 16.0.0, SVG Export Plug-In . SVG Version: 6.00 Build 0)  -->
<!DOCTYPE svg PUBLIC "-//W3C//DTD SVG 1.1//EN" "http://www.w3.org/Graphics/SVG/1.1/DTD/svg11.dtd">
<svg version="1.1" id="Layer_1" xmlns="http://www.w3.org/2000/svg" xmlns:xlink="http://www.w3.org/1999/xlink" x="0px" y="0px"
	 width="142.429px" height="142.436px" viewBox="0 0 142.429 142.436" enable-background="new 0 0 142.429 142.436"
	 xml:space="preserve">
<path fill="#FFFFFF" d="M71.211,12.839c19.019,0,21.265,0.065,28.781,0.416c6.944,0.312,10.709,1.48,13.221,2.44
	c3.324,1.298,5.699,2.843,8.192,5.335c2.485,2.493,4.03,4.868,5.329,8.191c0.967,2.506,2.129,6.271,2.446,13.216
	c0.345,7.516,0.416,9.762,0.416,28.78c0,19.018-0.071,21.264-0.416,28.768c-0.317,6.958-1.479,10.71-2.446,13.229
	c-1.299,3.322-2.844,5.686-5.329,8.178c-2.493,2.506-4.868,4.051-8.192,5.349c-2.512,0.961-6.276,2.116-13.221,2.44
	c-7.517,0.351-9.763,0.416-28.781,0.416c-19.012,0-21.271-0.065-28.773-0.416c-6.945-0.324-10.71-1.479-13.223-2.44
	c-3.322-1.298-5.698-2.843-8.185-5.349c-2.492-2.492-4.037-4.855-5.329-8.178c-0.974-2.519-2.135-6.271-2.453-13.229
	c-0.344-7.504-0.416-9.75-0.416-28.768c0-19.019,0.072-21.264,0.416-28.768c0.318-6.958,1.479-10.723,2.453-13.229
	c1.292-3.323,2.837-5.699,5.329-8.191c2.486-2.492,4.862-4.037,8.185-5.335c2.513-0.96,6.277-2.129,13.223-2.44
	C49.947,12.904,52.199,12.839,71.211,12.839 M71.211,0C51.875,0,49.454,0.091,41.859,0.429c-7.594,0.351-12.761,1.558-17.291,3.323
	c-4.687,1.804-8.652,4.245-12.619,8.204c-3.959,3.959-6.387,7.932-8.211,12.618c-1.759,4.531-2.959,9.697-3.31,17.279
	C0.084,49.46,0,51.875,0,71.218s0.084,21.757,0.429,29.352c0.351,7.581,1.551,12.761,3.31,17.291
	c1.824,4.688,4.252,8.646,8.211,12.619c3.967,3.959,7.933,6.399,12.619,8.204c4.53,1.766,9.697,2.96,17.291,3.323
	c7.595,0.338,10.016,0.429,29.352,0.429c19.343,0,21.764-0.091,29.365-0.429c7.581-0.363,12.754-1.558,17.285-3.323
	c4.68-1.805,8.658-4.245,12.618-8.204c3.952-3.973,6.387-7.932,8.211-12.619c1.759-4.53,2.96-9.71,3.31-17.291
	c0.345-7.595,0.429-10.009,0.429-29.352S142.345,49.46,142,41.853c-0.35-7.582-1.551-12.748-3.31-17.279
	c-1.824-4.687-4.259-8.659-8.211-12.618c-3.96-3.959-7.938-6.4-12.618-8.204c-4.531-1.766-9.704-2.973-17.285-3.323
	C92.975,0.091,90.554,0,71.211,0L71.211,0z"/>
<path fill="#FFFFFF" d="M71.211,34.648c-20.193,0-36.562,16.37-36.562,36.569c0,20.199,16.369,36.557,36.562,36.557
	c20.199,0,36.57-16.357,36.57-36.557C107.781,51.018,91.41,34.648,71.211,34.648z M71.211,94.961
	c-13.104,0-23.73-10.645-23.73-23.743c0-13.111,10.626-23.744,23.73-23.744c13.111,0,23.744,10.632,23.744,23.744
	C94.955,84.316,84.322,94.961,71.211,94.961z"/>
<path fill="#FFFFFF" d="M117.776,33.207c0,4.713-3.829,8.542-8.548,8.542c-4.713,0-8.549-3.829-8.549-8.542
	c0-4.738,3.836-8.555,8.549-8.555C113.947,24.652,117.776,28.469,117.776,33.207z"/>
</svg>
