<?xml version="1.0" encoding="utf-8"?>
<!-- Generator: Adobe Illustrator 16.0.0, SVG Export Plug-In . SVG Version: 6.00 Build 0)  -->
<!DOCTYPE svg PUBLIC "-//W3C//DTD SVG 1.1//EN" "http://www.w3.org/Graphics/SVG/1.1/DTD/svg11.dtd">
<svg version="1.1" id="Layer_1" xmlns="http://www.w3.org/2000/svg" xmlns:xlink="http://www.w3.org/1999/xlink" x="0px" y="0px"
	 width="112.601px" height="112.602px" viewBox="0 0 112.601 112.602" enable-background="new 0 0 112.601 112.602"
	 xml:space="preserve">
<g>
	<path fill-rule="evenodd" clip-rule="evenodd" fill="#F68720" d="M40.083,30.07h32.429c0.363,0,0.66,0.285,0.66,0.648v3.402h6.738
		c1.084,0,2.072,0.443,2.786,1.157v0.009c0.708,0.711,1.154,1.691,1.154,2.777V51.24c0,0.648-0.143,1.244-0.416,1.797
		c-0.269,0.533-0.679,1.006-1.19,1.391l-9.304,6.816c-0.03,0.018-0.054,0.035-0.071,0.054l-8.619,6.304
		c-0.357,0.268-0.619,0.578-0.798,0.923c-0.178,0.356-0.279,0.768-0.279,1.202v9.298h6.053c1.09,0,2.078,0.434,2.786,1.155l0,0
		c0.714,0.72,1.16,1.701,1.16,2.785v5c0,0.368-0.297,0.66-0.66,0.66H40.083c-0.362,0-0.661-0.292-0.661-0.66v-5
		c0-1.084,0.447-2.072,1.161-2.785c0.708-0.722,1.696-1.155,2.786-1.155h6.584v-8.756c0-0.435-0.085-0.834-0.264-1.19
		c-0.178-0.347-0.439-0.661-0.785-0.917l-9.179-6.882l-0.023-0.018l-9.351-6.834c-0.513-0.385-0.917-0.857-1.191-1.391
		c-0.268-0.553-0.417-1.148-0.417-1.797V38.064c0-1.086,0.446-2.074,1.155-2.786c0.715-0.714,1.703-1.157,2.786-1.157h6.737v-3.402
		C39.422,30.355,39.721,30.07,40.083,30.07L40.083,30.07z M62.518,80.327H50.613h-7.244c-0.721,0-1.381,0.304-1.852,0.786
		c-0.482,0.471-0.774,1.119-0.774,1.852v4.345h31.107v-4.345c0-0.732-0.28-1.388-0.761-1.852v-0.012
		c-0.482-0.471-1.144-0.774-1.864-0.774H62.518L62.518,80.327z M47.499,44.99c-0.178,0-0.356,0.07-0.481,0.214
		c-0.238,0.276-0.215,0.693,0.06,0.926l4.446,3.917l-1.292,5.75c-0.048,0.169-0.029,0.356,0.071,0.518
		c0.179,0.301,0.578,0.407,0.899,0.229l5.089-3.027l5.102,3.027l0,0c0.138,0.081,0.304,0.107,0.471,0.072
		c0.356-0.072,0.583-0.426,0.499-0.783l-1.291-5.776l4.452-3.908h-0.006c0.125-0.115,0.209-0.268,0.221-0.438
		c0.035-0.363-0.232-0.685-0.59-0.711l-5.898-0.56l-2.346-5.44h-0.006c-0.065-0.152-0.178-0.277-0.339-0.34
		c-0.328-0.14-0.715,0.013-0.863,0.34l-2.352,5.44L47.499,44.99L47.499,44.99z M53.857,45.701l-4.774,0.446l3.596,3.179l0,0
		c0.172,0.149,0.256,0.39,0.208,0.631l-1.054,4.682l4.118-2.438c0.197-0.125,0.465-0.133,0.68,0l4.125,2.438l-1.036-4.628
		c-0.071-0.232,0-0.506,0.197-0.685l3.595-3.17l-4.727-0.446c-0.249-0.009-0.481-0.151-0.589-0.399l-1.894-4.398l-1.898,4.381
		C54.315,45.517,54.112,45.684,53.857,45.701L53.857,45.701z M73.172,35.439v24.008l8.293-6.07c0.35-0.268,0.625-0.581,0.803-0.938
		c0.179-0.346,0.269-0.756,0.269-1.199V38.064c0-0.721-0.286-1.381-0.769-1.852l0,0c-0.477-0.481-1.131-0.773-1.857-0.773H73.172
		L73.172,35.439z M39.422,59.447V35.439h-6.737c-0.72,0-1.381,0.292-1.852,0.773c-0.481,0.471-0.773,1.131-0.773,1.852V51.24
		c0,0.443,0.089,0.854,0.273,1.199c0.179,0.356,0.446,0.67,0.798,0.938L39.422,59.447L39.422,59.447z M71.851,31.38H40.743v3.399
		v25.625l8.946,6.715c0.507,0.376,0.905,0.845,1.174,1.381c0.268,0.542,0.41,1.131,0.41,1.769v8.756h10.583v-9.298
		c0-0.637,0.144-1.244,0.417-1.786c0.279-0.535,0.679-1.018,1.203-1.393l8.374-6.144V34.779V31.38z"/>
	<path fill-rule="evenodd" clip-rule="evenodd" fill="none" stroke="#FFFFFF" stroke-miterlimit="10" d="M0.5,56.301
		C0.5,25.483,25.482,0.5,56.298,0.5c30.821,0,55.803,24.983,55.803,55.801c0,30.818-24.981,55.801-55.803,55.801
		C25.482,112.102,0.5,87.119,0.5,56.301z"/>
</g>
</svg>
