<?xml version="1.0" encoding="utf-8"?>
<!-- Generator: Adobe Illustrator 16.0.0, SVG Export Plug-In . SVG Version: 6.00 Build 0)  -->
<!DOCTYPE svg PUBLIC "-//W3C//DTD SVG 1.1//EN" "http://www.w3.org/Graphics/SVG/1.1/DTD/svg11.dtd">
<svg version="1.1" id="Layer_1" xmlns="http://www.w3.org/2000/svg" xmlns:xlink="http://www.w3.org/1999/xlink" x="0px" y="0px"
	 width="112.602px" height="112.602px" viewBox="0 0 112.602 112.602" enable-background="new 0 0 112.602 112.602"
	 xml:space="preserve">
<g>
	<path fill-rule="evenodd" clip-rule="evenodd" fill="#F68720" d="M59.602,35.561c1.72,0.539,3.262,1.493,4.506,2.735
		c1.994,1.999,3.231,4.755,3.231,7.8c0,0.379-0.297,0.664-0.666,0.664h-20.75c-0.369,0-0.666-0.285-0.666-0.664
		c0-3.045,1.243-5.801,3.231-7.8c1.243-1.242,2.785-2.188,4.494-2.729c-0.613-0.332-1.179-0.749-1.673-1.232
		c-1.262-1.276-2.054-3.044-2.054-4.989c0-1.947,0.792-3.701,2.054-4.973c1.28-1.275,3.041-2.07,4.988-2.07
		c1.946,0,3.702,0.795,4.97,2.07c1.279,1.271,2.072,3.035,2.072,4.973c0,1.945-0.793,3.713-2.072,4.979l0,0v0.011
		C60.779,34.818,60.22,35.235,59.602,35.561L59.602,35.561z M55.631,48.744c0-0.371,0.304-0.668,0.667-0.668
		c0.369,0,0.667,0.297,0.667,0.668v4.474c1.303,0.155,2.476,0.749,3.356,1.629h0.013C61.356,55.873,62,57.306,62,58.884
		c0,1.188-0.375,2.295-1,3.215l3.59,3.628c0.262,0.25,0.262,0.676,0,0.935c-0.263,0.255-0.673,0.255-0.936,0l-3.529-3.562
		c-1.018,0.92-2.352,1.474-3.827,1.474c-1.417,0-2.72-0.519-3.708-1.375l-3.459,3.464c-0.273,0.255-0.69,0.255-0.946,0
		c-0.262-0.259-0.262-0.685,0-0.94l3.506-3.506c-0.69-0.936-1.083-2.09-1.083-3.331c0-1.587,0.631-3.011,1.654-4.037
		c0.894-0.88,2.065-1.474,3.369-1.629V48.744L55.631,48.744z M53.036,61.792l0.012,0.009c0.018,0.016,0.036,0.035,0.053,0.057
		c0.036,0.033,0.072,0.068,0.107,0.106l0,0c0.792,0.792,1.882,1.278,3.09,1.278c1.202,0,2.297-0.486,3.089-1.278
		c0.786-0.792,1.273-1.875,1.273-3.08c0-1.208-0.482-2.305-1.273-3.099c-0.785-0.783-1.887-1.279-3.089-1.279l0,0
		c-1.208,0-2.298,0.496-3.09,1.279c-0.785,0.794-1.279,1.891-1.279,3.099C51.929,60,52.352,61.029,53.036,61.792L53.036,61.792z
		 M37.334,53.65c-1.936,0-3.702,0.785-4.978,2.064c-1.273,1.277-2.065,3.035-2.065,4.979c0,1.944,0.792,3.699,2.065,4.979
		c0.494,0.487,1.055,0.901,1.68,1.243c-1.727,0.539-3.263,1.478-4.501,2.718c-2,1.997-3.238,4.753-3.238,7.818
		c0,0.36,0.299,0.655,0.667,0.655h20.762c0.357,0,0.655-0.295,0.655-0.655c0-3.065-1.232-5.821-3.231-7.818
		c-1.244-1.24-2.786-2.187-4.507-2.726c0.625-0.334,1.179-0.748,1.679-1.235l0,0l0,0c1.268-1.28,2.054-3.044,2.054-4.979
		c0-1.943-0.786-3.701-2.054-4.979C41.042,54.436,39.273,53.65,37.334,53.65L37.334,53.65z M41.375,56.649
		c1.035,1.035,1.673,2.47,1.673,4.044s-0.638,3.01-1.673,4.041l0,0c-1.035,1.027-2.458,1.668-4.036,1.668h-0.005
		c-1.572,0-3.001-0.641-4.036-1.668c-1.03-1.031-1.679-2.467-1.679-4.041s0.648-3.009,1.679-4.044
		c1.035-1.026,2.464-1.663,4.036-1.663C38.917,54.986,40.34,55.623,41.375,56.649L41.375,56.649z M44.214,70.577
		c1.602,1.613,2.654,3.786,2.815,6.209H27.648c0.173-2.423,1.215-4.596,2.828-6.209c1.756-1.749,4.185-2.845,6.857-2.851h0.005
		C40.024,67.727,42.446,68.828,44.214,70.577L44.214,70.577z M75.25,53.65c-1.94,0-3.696,0.785-4.976,2.064
		c-1.28,1.277-2.061,3.035-2.061,4.979c0,1.944,0.78,3.699,2.061,4.979c0.487,0.487,1.053,0.901,1.672,1.243
		c-1.72,0.539-3.256,1.478-4.5,2.718c-1.988,1.997-3.227,4.753-3.227,7.818c0,0.36,0.292,0.655,0.661,0.655h20.756
		c0.357,0,0.667-0.295,0.667-0.655c0-3.065-1.244-5.821-3.244-7.818c-1.244-1.24-2.773-2.187-4.494-2.726
		c0.625-0.334,1.185-0.748,1.667-1.235l0,0l0,0c1.279-1.28,2.065-3.044,2.065-4.979c0-1.943-0.786-3.701-2.065-4.979
		C78.952,54.436,77.19,53.65,75.25,53.65L75.25,53.65z M79.298,56.649c1.023,1.035,1.672,2.47,1.672,4.044s-0.648,3.01-1.672,4.041
		l0,0c-1.036,1.027-2.471,1.668-4.036,1.668H75.25c-1.571,0-3.006-0.641-4.042-1.668c-1.023-1.031-1.666-2.467-1.666-4.041
		s0.643-3.009,1.666-4.044c1.036-1.026,2.471-1.663,4.042-1.663C76.827,54.986,78.262,55.623,79.298,56.649L79.298,56.649z
		 M82.125,70.577c1.613,1.613,2.666,3.786,2.827,6.209H65.571c0.161-2.423,1.208-4.596,2.821-6.209
		c1.751-1.749,4.185-2.845,6.857-2.851h0.012C77.94,67.727,80.369,68.828,82.125,70.577L82.125,70.577z M56.298,35.055
		L56.298,35.055c1.571,0,3.006-0.631,4.036-1.664l0,0c1.034-1.038,1.673-2.459,1.673-4.045c0-1.567-0.639-3.008-1.673-4.034
		c-1.036-1.038-2.465-1.675-4.036-1.675c-1.59,0-3.007,0.637-4.048,1.675c-1.029,1.032-1.661,2.467-1.661,4.034
		c0,1.586,0.632,3.007,1.661,4.045C53.291,34.424,54.708,35.055,56.298,35.055L56.298,35.055z M63.16,39.234
		c-1.749-1.756-4.178-2.846-6.862-2.846l0,0c-2.685,0-5.113,1.09-6.863,2.846c-1.619,1.613-2.667,3.782-2.828,6.203h19.382
		C65.828,43.017,64.78,40.848,63.16,39.234z"/>
	<path fill-rule="evenodd" clip-rule="evenodd" fill="none" stroke="#FFFFFF" stroke-miterlimit="10" d="M0.5,56.301
		C0.5,25.483,25.481,0.5,56.304,0.5c30.815,0,55.798,24.983,55.798,55.801c0,30.818-24.982,55.801-55.798,55.801
		C25.481,112.102,0.5,87.119,0.5,56.301z"/>
</g>
</svg>
