<?xml version="1.0" encoding="utf-8"?>
<!-- Generator: Adobe Illustrator 16.0.0, SVG Export Plug-In . SVG Version: 6.00 Build 0)  -->
<!DOCTYPE svg PUBLIC "-//W3C//DTD SVG 1.1//EN" "http://www.w3.org/Graphics/SVG/1.1/DTD/svg11.dtd">
<svg version="1.1" id="Layer_1" xmlns="http://www.w3.org/2000/svg" xmlns:xlink="http://www.w3.org/1999/xlink" x="0px" y="0px"
	 width="112.597px" height="112.602px" viewBox="0 0 112.597 112.602" enable-background="new 0 0 112.597 112.602"
	 xml:space="preserve">
<g>
	<path fill-rule="evenodd" clip-rule="evenodd" fill="#F68720" d="M66.006,55.369H87.15h2.357c0.386,0,0.708,0.317,0.708,0.709
		c0,0.393-0.322,0.698-0.708,0.698h-1.649v23.992c0,0.393-0.315,0.711-0.708,0.711H65.297H43.446H21.583
		c-0.393,0-0.708-0.318-0.708-0.711V51.344h-1.643c-0.387,0-0.702-0.318-0.702-0.699c0-0.395,0.315-0.71,0.702-0.71h2.352h21.148
		V30.457h-1.649c-0.38,0-0.696-0.314-0.696-0.702c0-0.39,0.316-0.708,0.696-0.708h2.363h21.851h2.345
		c0.393,0,0.714,0.318,0.714,0.708c0,0.388-0.321,0.702-0.714,0.702h-1.637V55.369L66.006,55.369z M64.589,80.06V56.078V30.457
		H44.155v20.188V80.06H64.589L64.589,80.06z M28.738,59.5h4.679l0,0l0,0v2.352h-3.965c-0.393,0-0.744,0.16-1.006,0.407
		c-0.25,0.259-0.417,0.613-0.417,1v2.349c0,0.393,0.167,0.743,0.417,1.003c0.018,0.021,0.042,0.032,0.06,0.051
		c0.25,0.229,0.577,0.363,0.946,0.363h4.673c0.393,0,0.714-0.315,0.714-0.708c0-0.394-0.322-0.709-0.714-0.709h-4.673l0,0l0,0
		v-2.349v0.009v-0.009h3.965c0.393,0,0.75-0.151,1-0.413l0,0c0.268-0.257,0.423-0.613,0.423-0.994V59.5
		c0-0.363-0.137-0.688-0.369-0.939c-0.018-0.019-0.036-0.037-0.054-0.055c-0.25-0.262-0.607-0.416-1-0.416h-4.679
		c-0.393,0-0.708,0.321-0.708,0.699C28.03,59.186,28.345,59.5,28.738,59.5L28.738,59.5z M33.417,61.852L33.417,61.852L33.417,61.852
		L33.417,61.852L33.417,61.852z M33.417,61.852L33.417,61.852L33.417,61.852L33.417,61.852L33.417,61.852L33.417,61.852
		L33.417,61.852L33.417,61.852L33.417,61.852L33.417,61.852z M73.543,65.369h4.679l0,0l0,0v2.346h-3.875
		c-0.393,0-0.708,0.315-0.708,0.708c0,0.387,0.316,0.708,0.708,0.708h3.875v2.352h-4.679c-0.404,0-0.714,0.314-0.714,0.696
		c0,0.396,0.31,0.708,0.714,0.708h4.679c0.381,0,0.732-0.16,0.994-0.408l0,0c0.25-0.259,0.423-0.609,0.423-0.996v-3.06v-3.054
		c0-0.369-0.155-0.69-0.375-0.939c-0.012-0.019-0.03-0.043-0.048-0.061c-0.262-0.26-0.613-0.41-0.994-0.41h-4.679
		c-0.404,0-0.714,0.312-0.714,0.699C72.829,65.048,73.139,65.369,73.543,65.369L73.543,65.369z M78.222,71.482L78.222,71.482v-0.012
		V71.482z M78.222,71.482L78.222,71.482L78.222,71.482L78.222,71.482L78.222,71.482L78.222,71.482L78.222,71.482L78.222,71.482
		L78.222,71.482L78.222,71.482z M55.077,45.429v-7.513c0-0.393-0.315-0.711-0.708-0.711s-0.708,0.318-0.708,0.711v7.513
		c0,0.395,0.316,0.71,0.708,0.71S55.077,45.823,55.077,45.429L55.077,45.429z M42.732,51.344h-20.44V80.06h20.44V51.344
		L42.732,51.344z M86.442,56.776H66.006V80.06h20.436V56.776z"/>
	
		<circle fill-rule="evenodd" clip-rule="evenodd" fill="none" stroke="#FFFFFF" stroke-miterlimit="10" cx="56.298" cy="56.301" r="55.798"/>
</g>
</svg>
