<?xml version="1.0" encoding="utf-8"?>
<!-- Generator: Adobe Illustrator 16.0.0, SVG Export Plug-In . SVG Version: 6.00 Build 0)  -->
<!DOCTYPE svg PUBLIC "-//W3C//DTD SVG 1.1//EN" "http://www.w3.org/Graphics/SVG/1.1/DTD/svg11.dtd">
<svg version="1.1" id="Layer_1" xmlns="http://www.w3.org/2000/svg" xmlns:xlink="http://www.w3.org/1999/xlink" x="0px" y="0px"
	 width="112.602px" height="112.602px" viewBox="0 0 112.602 112.602" enable-background="new 0 0 112.602 112.602"
	 xml:space="preserve">
<g>
	<g>
		<path fill-rule="evenodd" clip-rule="evenodd" fill="#F68720" d="M51.721,33.029l-1.404-2.023l-6.78,4.701L51.721,33.029
			L51.721,33.029z M80.68,51.527V40.963c0-0.756-0.304-1.438-0.798-1.938l0,0c-0.494-0.497-1.19-0.806-1.941-0.806H32.898
			c-0.761,0-1.452,0.309-1.939,0.806c-0.488,0.501-0.81,1.188-0.81,1.938V77.69c0,0.76,0.321,1.446,0.81,1.929v0.006
			c0.487,0.494,1.179,0.81,1.939,0.81H77.94c0.751,0,1.447-0.315,1.941-0.815c0.494-0.482,0.798-1.169,0.798-1.929v-9.048H60.542
			c-0.654,0-1.256-0.256-1.696-0.702l0,0c-0.429-0.429-0.709-1.032-0.709-1.693V53.928c0-0.636,0.263-1.22,0.667-1.653
			c0.013-0.011,0.018-0.025,0.042-0.042c0.435-0.435,1.042-0.705,1.696-0.705H80.68L80.68,51.527z M82.054,68.643v9.048
			c0,1.131-0.464,2.161-1.202,2.905c-0.744,0.744-1.768,1.205-2.911,1.205H32.898c-1.136,0-2.153-0.456-2.898-1.199l-0.006-0.006
			l0,0v-0.012c-0.756-0.744-1.214-1.763-1.214-2.894V40.963c0-1.131,0.458-2.162,1.214-2.904c0.744-0.742,1.769-1.207,2.904-1.207
			h0.132l16.953-11.723c0.541-0.379,1.189-0.492,1.791-0.386c0.607,0.112,1.173,0.456,1.553,0.995l3.805,5.518l13.541-4.43
			c0.036-0.005,0.061-0.017,0.096-0.025c0.606-0.187,1.238-0.113,1.779,0.158c0.53,0.268,0.971,0.738,1.173,1.34
			c0.019,0.027,0.023,0.062,0.035,0.1l2.769,8.453h1.416c1.131,0,2.167,0.465,2.911,1.207l0,0c0.738,0.748,1.202,1.779,1.202,2.904
			v10.564h1.089c0.382,0,0.68,0.309,0.68,0.686v15.746c0,0.387-0.298,0.684-0.68,0.684H82.054L82.054,68.643z M35.436,36.852
			l15.333-10.595c0.232-0.161,0.506-0.216,0.768-0.169c0.256,0.048,0.5,0.196,0.66,0.426l3.584,5.186l-2.702,0.886L51.06,29.67
			c-0.214-0.311-0.648-0.387-0.945-0.179l-10.65,7.36H35.436L35.436,36.852z M44.423,36.852l26.715-8.734l0,0
			c0.273-0.087,0.56-0.059,0.798,0.062c0.22,0.113,0.41,0.328,0.499,0.59v0.006l2.638,8.076h-2.596l-1.881-5.699
			c-0.107-0.363-0.5-0.556-0.851-0.441l-18.787,6.141H44.423L44.423,36.852z M55.369,36.852h5.876l7.16-2.334
			c0.357-0.117,0.744,0.078,0.857,0.437c0.113,0.36-0.089,0.747-0.447,0.863l-3.167,1.034h5.375l-1.511-4.628L55.369,36.852
			L55.369,36.852z M82.453,52.895v14.373h-1.084H60.542c-0.291,0-0.547-0.106-0.732-0.295c-0.19-0.188-0.297-0.446-0.297-0.726
			V53.928c0-0.268,0.106-0.517,0.273-0.697l0.023-0.033c0.186-0.181,0.441-0.303,0.732-0.303h20.827H82.453L82.453,52.895z
			 M67.572,56.693c0.928,0,1.78,0.382,2.398,1.003c0.607,0.607,0.988,1.453,0.988,2.39c0,0.943-0.381,1.789-0.988,2.4
			c-0.618,0.615-1.471,0.996-2.398,0.996c-0.947,0-1.792-0.381-2.405-0.996c-0.619-0.611-0.994-1.457-0.994-2.4
			c0-0.937,0.375-1.782,0.994-2.39C65.78,57.075,66.625,56.693,67.572,56.693L67.572,56.693z M64.196,56.719
			c0.869-0.859,2.055-1.393,3.376-1.393c1.31,0,2.505,0.533,3.356,1.393c0.869,0.863,1.399,2.056,1.399,3.367
			c0,1.318-0.53,2.503-1.399,3.375c-0.852,0.854-2.047,1.393-3.356,1.393c-1.321,0-2.507-0.538-3.376-1.393
			c-0.862-0.872-1.398-2.057-1.398-3.375C62.798,58.774,63.334,57.582,64.196,56.719z"/>
	</g>
	<path fill-rule="evenodd" clip-rule="evenodd" fill="none" stroke="#FFFFFF" stroke-miterlimit="10" d="M0.5,56.301
		C0.5,25.483,25.482,0.5,56.298,0.5c30.822,0,55.804,24.983,55.804,55.801c0,30.818-24.981,55.801-55.804,55.801
		C25.482,112.102,0.5,87.119,0.5,56.301z"/>
</g>
</svg>
